<?xml version="1.0" encoding="UTF-8"?><svg id="uuid-92ecf306-3735-4575-affa-38f9859e285c" xmlns="http://www.w3.org/2000/svg" viewBox="0 0 600 600"><path d="M316.07,573.69c-.36,0-.71,0-1.06,0-155.84-.58-283.45-127.82-284.46-283.65-.36-55.91,15.43-110.15,45.68-156.87,29.44-45.47,70.93-81.51,119.97-104.23,10.36-4.8,22.49-2.92,30.91,4.78,8.38,7.66,11.31,19.52,7.47,30.2-10.02,27.89-14.86,57.2-14.37,87.13h0c1.05,64.07,26.88,124.43,72.74,169.94,45.86,45.52,106.41,70.9,170.5,71.48,23.14,.21,46.04-2.79,68.1-8.93,11.63-3.23,23.98,.82,31.46,10.33,7.49,9.52,8.53,22.5,2.64,33.07-50.48,90.59-146.04,146.74-249.59,146.74ZM188.48,78.33c-31.53,19.19-58.41,45.29-78.67,76.58-25.99,40.15-39.57,86.78-39.26,134.87,.87,134,110.6,243.41,244.6,243.91,.3,0,.61,0,.91,0,81.08,0,156.47-40.04,202.08-106.02-18.08,3.36-36.51,4.96-55.06,4.81-74.58-.67-145-30.18-198.31-83.09-53.31-52.91-83.34-123.12-84.56-197.68h0c-.41-24.93,2.37-49.51,8.27-73.38Z"/></svg>